<svg width="100%" height="100%" xmlns="http://www.w3.org/2000/svg" xmlns:xlink="http://www.w3.org/1999/xlink">
                                    <g><rect id="qr-code-bg" width="100%" height="100%" fill="#ffffff"/></g>
                                    <g id="qr-code"><svg viewBox="0 0 37 37" width="100%" height="100%" xmlns:xlink="http://www.w3.org/1999/xlink" fill="#ffffff"><defs><rect fill="#000000" stroke="none" width="1" height="1" id="pattern"/><rect fill="#000000" stroke="none" width="1" height="1" id="pattern-eye-internal"/><rect fill="#000000" stroke="none" width="1" height="1" id="pattern-eye-external"/></defs><rect fill="#ffffff" stroke="none" width="100%" height="100%"/><use x="0" y="0" xlink:href="#pattern-eye-external"/><use x="1" y="0" xlink:href="#pattern-eye-external"/><use x="2" y="0" xlink:href="#pattern-eye-external"/><use x="3" y="0" xlink:href="#pattern-eye-external"/><use x="4" y="0" xlink:href="#pattern-eye-external"/><use x="5" y="0" xlink:href="#pattern-eye-external"/><use x="6" y="0" xlink:href="#pattern-eye-external"/><use x="11" y="0" xlink:href="#pattern"/><use x="14" y="0" xlink:href="#pattern"/><use x="15" y="0" xlink:href="#pattern"/><use x="18" y="0" xlink:href="#pattern"/><use x="19" y="0" xlink:href="#pattern"/><use x="21" y="0" xlink:href="#pattern"/><use x="22" y="0" xlink:href="#pattern"/><use x="26" y="0" xlink:href="#pattern"/><use x="30" y="0" xlink:href="#pattern-eye-external"/><use x="31" y="0" xlink:href="#pattern-eye-external"/><use x="32" y="0" xlink:href="#pattern-eye-external"/><use x="33" y="0" xlink:href="#pattern-eye-external"/><use x="34" y="0" xlink:href="#pattern-eye-external"/><use x="35" y="0" xlink:href="#pattern-eye-external"/><use x="36" y="0" xlink:href="#pattern-eye-external"/><use x="0" y="1" xlink:href="#pattern-eye-external"/><use x="6" y="1" xlink:href="#pattern-eye-external"/><use x="9" y="1" xlink:href="#pattern"/><use x="10" y="1" xlink:href="#pattern"/><use x="11" y="1" xlink:href="#pattern"/><use x="13" y="1" xlink:href="#pattern"/><use x="14" y="1" xlink:href="#pattern"/><use x="16" y="1" xlink:href="#pattern"/><use x="18" y="1" xlink:href="#pattern"/><use x="19" y="1" xlink:href="#pattern"/><use x="20" y="1" xlink:href="#pattern"/><use x="21" y="1" xlink:href="#pattern"/><use x="22" y="1" xlink:href="#pattern"/><use x="26" y="1" xlink:href="#pattern"/><use x="30" y="1" xlink:href="#pattern-eye-external"/><use x="36" y="1" xlink:href="#pattern-eye-external"/><use x="0" y="2" xlink:href="#pattern-eye-external"/><use x="2" y="2" xlink:href="#pattern-eye-internal"/><use x="3" y="2" xlink:href="#pattern-eye-internal"/><use x="4" y="2" xlink:href="#pattern-eye-internal"/><use x="6" y="2" xlink:href="#pattern-eye-external"/><use x="8" y="2" xlink:href="#pattern"/><use x="10" y="2" xlink:href="#pattern"/><use x="11" y="2" xlink:href="#pattern"/><use x="14" y="2" xlink:href="#pattern"/><use x="16" y="2" xlink:href="#pattern"/><use x="17" y="2" xlink:href="#pattern"/><use x="19" y="2" xlink:href="#pattern"/><use x="21" y="2" xlink:href="#pattern"/><use x="22" y="2" xlink:href="#pattern"/><use x="23" y="2" xlink:href="#pattern"/><use x="25" y="2" xlink:href="#pattern"/><use x="27" y="2" xlink:href="#pattern"/><use x="30" y="2" xlink:href="#pattern-eye-external"/><use x="32" y="2" xlink:href="#pattern-eye-internal"/><use x="33" y="2" xlink:href="#pattern-eye-internal"/><use x="34" y="2" xlink:href="#pattern-eye-internal"/><use x="36" y="2" xlink:href="#pattern-eye-external"/><use x="0" y="3" xlink:href="#pattern-eye-external"/><use x="2" y="3" xlink:href="#pattern-eye-internal"/><use x="3" y="3" xlink:href="#pattern-eye-internal"/><use x="4" y="3" xlink:href="#pattern-eye-internal"/><use x="6" y="3" xlink:href="#pattern-eye-external"/><use x="8" y="3" xlink:href="#pattern"/><use x="10" y="3" xlink:href="#pattern"/><use x="12" y="3" xlink:href="#pattern"/><use x="15" y="3" xlink:href="#pattern"/><use x="16" y="3" xlink:href="#pattern"/><use x="18" y="3" xlink:href="#pattern"/><use x="19" y="3" xlink:href="#pattern"/><use x="20" y="3" xlink:href="#pattern"/><use x="22" y="3" xlink:href="#pattern"/><use x="23" y="3" xlink:href="#pattern"/><use x="25" y="3" xlink:href="#pattern"/><use x="28" y="3" xlink:href="#pattern"/><use x="30" y="3" xlink:href="#pattern-eye-external"/><use x="32" y="3" xlink:href="#pattern-eye-internal"/><use x="33" y="3" xlink:href="#pattern-eye-internal"/><use x="34" y="3" xlink:href="#pattern-eye-internal"/><use x="36" y="3" xlink:href="#pattern-eye-external"/><use x="0" y="4" xlink:href="#pattern-eye-external"/><use x="2" y="4" xlink:href="#pattern-eye-internal"/><use x="3" y="4" xlink:href="#pattern-eye-internal"/><use x="4" y="4" xlink:href="#pattern-eye-internal"/><use x="6" y="4" xlink:href="#pattern-eye-external"/><use x="9" y="4" xlink:href="#pattern"/><use x="10" y="4" xlink:href="#pattern"/><use x="11" y="4" xlink:href="#pattern"/><use x="14" y="4" xlink:href="#pattern"/><use x="16" y="4" xlink:href="#pattern"/><use x="19" y="4" xlink:href="#pattern"/><use x="22" y="4" xlink:href="#pattern"/><use x="25" y="4" xlink:href="#pattern"/><use x="26" y="4" xlink:href="#pattern"/><use x="30" y="4" xlink:href="#pattern-eye-external"/><use x="32" y="4" xlink:href="#pattern-eye-internal"/><use x="33" y="4" xlink:href="#pattern-eye-internal"/><use x="34" y="4" xlink:href="#pattern-eye-internal"/><use x="36" y="4" xlink:href="#pattern-eye-external"/><use x="0" y="5" xlink:href="#pattern-eye-external"/><use x="6" y="5" xlink:href="#pattern-eye-external"/><use x="9" y="5" xlink:href="#pattern"/><use x="13" y="5" xlink:href="#pattern"/><use x="16" y="5" xlink:href="#pattern"/><use x="17" y="5" xlink:href="#pattern"/><use x="19" y="5" xlink:href="#pattern"/><use x="20" y="5" xlink:href="#pattern"/><use x="22" y="5" xlink:href="#pattern"/><use x="25" y="5" xlink:href="#pattern"/><use x="26" y="5" xlink:href="#pattern"/><use x="30" y="5" xlink:href="#pattern-eye-external"/><use x="36" y="5" xlink:href="#pattern-eye-external"/><use x="0" y="6" xlink:href="#pattern-eye-external"/><use x="1" y="6" xlink:href="#pattern-eye-external"/><use x="2" y="6" xlink:href="#pattern-eye-external"/><use x="3" y="6" xlink:href="#pattern-eye-external"/><use x="4" y="6" xlink:href="#pattern-eye-external"/><use x="5" y="6" xlink:href="#pattern-eye-external"/><use x="6" y="6" xlink:href="#pattern-eye-external"/><use x="8" y="6" xlink:href="#pattern"/><use x="10" y="6" xlink:href="#pattern"/><use x="12" y="6" xlink:href="#pattern"/><use x="14" y="6" xlink:href="#pattern"/><use x="16" y="6" xlink:href="#pattern"/><use x="18" y="6" xlink:href="#pattern"/><use x="20" y="6" xlink:href="#pattern"/><use x="22" y="6" xlink:href="#pattern"/><use x="24" y="6" xlink:href="#pattern"/><use x="26" y="6" xlink:href="#pattern"/><use x="28" y="6" xlink:href="#pattern"/><use x="30" y="6" xlink:href="#pattern-eye-external"/><use x="31" y="6" xlink:href="#pattern-eye-external"/><use x="32" y="6" xlink:href="#pattern-eye-external"/><use x="33" y="6" xlink:href="#pattern-eye-external"/><use x="34" y="6" xlink:href="#pattern-eye-external"/><use x="35" y="6" xlink:href="#pattern-eye-external"/><use x="36" y="6" xlink:href="#pattern-eye-external"/><use x="9" y="7" xlink:href="#pattern"/><use x="10" y="7" xlink:href="#pattern"/><use x="11" y="7" xlink:href="#pattern"/><use x="12" y="7" xlink:href="#pattern"/><use x="13" y="7" xlink:href="#pattern"/><use x="14" y="7" xlink:href="#pattern"/><use x="16" y="7" xlink:href="#pattern"/><use x="17" y="7" xlink:href="#pattern"/><use x="19" y="7" xlink:href="#pattern"/><use x="24" y="7" xlink:href="#pattern"/><use x="25" y="7" xlink:href="#pattern"/><use x="27" y="7" xlink:href="#pattern"/><use x="28" y="7" xlink:href="#pattern"/><use x="3" y="8" xlink:href="#pattern"/><use x="4" y="8" xlink:href="#pattern"/><use x="6" y="8" xlink:href="#pattern"/><use x="7" y="8" xlink:href="#pattern"/><use x="9" y="8" xlink:href="#pattern"/><use x="11" y="8" xlink:href="#pattern"/><use x="16" y="8" xlink:href="#pattern"/><use x="17" y="8" xlink:href="#pattern"/><use x="19" y="8" xlink:href="#pattern"/><use x="21" y="8" xlink:href="#pattern"/><use x="25" y="8" xlink:href="#pattern"/><use x="28" y="8" xlink:href="#pattern"/><use x="33" y="8" xlink:href="#pattern"/><use x="34" y="8" xlink:href="#pattern"/><use x="0" y="9" xlink:href="#pattern"/><use x="1" y="9" xlink:href="#pattern"/><use x="3" y="9" xlink:href="#pattern"/><use x="4" y="9" xlink:href="#pattern"/><use x="5" y="9" xlink:href="#pattern"/><use x="9" y="9" xlink:href="#pattern"/><use x="10" y="9" xlink:href="#pattern"/><use x="11" y="9" xlink:href="#pattern"/><use x="19" y="9" xlink:href="#pattern"/><use x="21" y="9" xlink:href="#pattern"/><use x="23" y="9" xlink:href="#pattern"/><use x="25" y="9" xlink:href="#pattern"/><use x="26" y="9" xlink:href="#pattern"/><use x="27" y="9" xlink:href="#pattern"/><use x="28" y="9" xlink:href="#pattern"/><use x="31" y="9" xlink:href="#pattern"/><use x="32" y="9" xlink:href="#pattern"/><use x="34" y="9" xlink:href="#pattern"/><use x="0" y="10" xlink:href="#pattern"/><use x="2" y="10" xlink:href="#pattern"/><use x="4" y="10" xlink:href="#pattern"/><use x="5" y="10" xlink:href="#pattern"/><use x="6" y="10" xlink:href="#pattern"/><use x="7" y="10" xlink:href="#pattern"/><use x="11" y="10" xlink:href="#pattern"/><use x="12" y="10" xlink:href="#pattern"/><use x="13" y="10" xlink:href="#pattern"/><use x="14" y="10" xlink:href="#pattern"/><use x="23" y="10" xlink:href="#pattern"/><use x="24" y="10" xlink:href="#pattern"/><use x="25" y="10" xlink:href="#pattern"/><use x="27" y="10" xlink:href="#pattern"/><use x="29" y="10" xlink:href="#pattern"/><use x="30" y="10" xlink:href="#pattern"/><use x="31" y="10" xlink:href="#pattern"/><use x="32" y="10" xlink:href="#pattern"/><use x="34" y="10" xlink:href="#pattern"/><use x="36" y="10" xlink:href="#pattern"/><use x="0" y="11" xlink:href="#pattern"/><use x="1" y="11" xlink:href="#pattern"/><use x="3" y="11" xlink:href="#pattern"/><use x="10" y="11" xlink:href="#pattern"/><use x="11" y="11" xlink:href="#pattern"/><use x="13" y="11" xlink:href="#pattern"/><use x="16" y="11" xlink:href="#pattern"/><use x="17" y="11" xlink:href="#pattern"/><use x="21" y="11" xlink:href="#pattern"/><use x="22" y="11" xlink:href="#pattern"/><use x="24" y="11" xlink:href="#pattern"/><use x="26" y="11" xlink:href="#pattern"/><use x="29" y="11" xlink:href="#pattern"/><use x="30" y="11" xlink:href="#pattern"/><use x="31" y="11" xlink:href="#pattern"/><use x="33" y="11" xlink:href="#pattern"/><use x="34" y="11" xlink:href="#pattern"/><use x="2" y="12" xlink:href="#pattern"/><use x="6" y="12" xlink:href="#pattern"/><use x="7" y="12" xlink:href="#pattern"/><use x="14" y="12" xlink:href="#pattern"/><use x="17" y="12" xlink:href="#pattern"/><use x="18" y="12" xlink:href="#pattern"/><use x="24" y="12" xlink:href="#pattern"/><use x="27" y="12" xlink:href="#pattern"/><use x="28" y="12" xlink:href="#pattern"/><use x="30" y="12" xlink:href="#pattern"/><use x="31" y="12" xlink:href="#pattern"/><use x="33" y="12" xlink:href="#pattern"/><use x="35" y="12" xlink:href="#pattern"/><use x="36" y="12" xlink:href="#pattern"/><use x="0" y="13" xlink:href="#pattern"/><use x="4" y="13" xlink:href="#pattern"/><use x="5" y="13" xlink:href="#pattern"/><use x="9" y="13" xlink:href="#pattern"/><use x="11" y="13" xlink:href="#pattern"/><use x="13" y="13" xlink:href="#pattern"/><use x="14" y="13" xlink:href="#pattern"/><use x="15" y="13" xlink:href="#pattern"/><use x="20" y="13" xlink:href="#pattern"/><use x="22" y="13" xlink:href="#pattern"/><use x="24" y="13" xlink:href="#pattern"/><use x="27" y="13" xlink:href="#pattern"/><use x="28" y="13" xlink:href="#pattern"/><use x="29" y="13" xlink:href="#pattern"/><use x="32" y="13" xlink:href="#pattern"/><use x="34" y="13" xlink:href="#pattern"/><use x="0" y="14" xlink:href="#pattern"/><use x="1" y="14" xlink:href="#pattern"/><use x="4" y="14" xlink:href="#pattern"/><use x="5" y="14" xlink:href="#pattern"/><use x="6" y="14" xlink:href="#pattern"/><use x="7" y="14" xlink:href="#pattern"/><use x="8" y="14" xlink:href="#pattern"/><use x="9" y="14" xlink:href="#pattern"/><use x="15" y="14" xlink:href="#pattern"/><use x="16" y="14" xlink:href="#pattern"/><use x="18" y="14" xlink:href="#pattern"/><use x="22" y="14" xlink:href="#pattern"/><use x="24" y="14" xlink:href="#pattern"/><use x="25" y="14" xlink:href="#pattern"/><use x="27" y="14" xlink:href="#pattern"/><use x="29" y="14" xlink:href="#pattern"/><use x="32" y="14" xlink:href="#pattern"/><use x="33" y="14" xlink:href="#pattern"/><use x="34" y="14" xlink:href="#pattern"/><use x="36" y="14" xlink:href="#pattern"/><use x="1" y="15" xlink:href="#pattern"/><use x="3" y="15" xlink:href="#pattern"/><use x="11" y="15" xlink:href="#pattern"/><use x="13" y="15" xlink:href="#pattern"/><use x="14" y="15" xlink:href="#pattern"/><use x="16" y="15" xlink:href="#pattern"/><use x="17" y="15" xlink:href="#pattern"/><use x="20" y="15" xlink:href="#pattern"/><use x="21" y="15" xlink:href="#pattern"/><use x="22" y="15" xlink:href="#pattern"/><use x="27" y="15" xlink:href="#pattern"/><use x="31" y="15" xlink:href="#pattern"/><use x="33" y="15" xlink:href="#pattern"/><use x="34" y="15" xlink:href="#pattern"/><use x="35" y="15" xlink:href="#pattern"/><use x="1" y="16" xlink:href="#pattern"/><use x="4" y="16" xlink:href="#pattern"/><use x="6" y="16" xlink:href="#pattern"/><use x="9" y="16" xlink:href="#pattern"/><use x="10" y="16" xlink:href="#pattern"/><use x="12" y="16" xlink:href="#pattern"/><use x="13" y="16" xlink:href="#pattern"/><use x="14" y="16" xlink:href="#pattern"/><use x="16" y="16" xlink:href="#pattern"/><use x="17" y="16" xlink:href="#pattern"/><use x="18" y="16" xlink:href="#pattern"/><use x="23" y="16" xlink:href="#pattern"/><use x="25" y="16" xlink:href="#pattern"/><use x="30" y="16" xlink:href="#pattern"/><use x="34" y="16" xlink:href="#pattern"/><use x="36" y="16" xlink:href="#pattern"/><use x="0" y="17" xlink:href="#pattern"/><use x="1" y="17" xlink:href="#pattern"/><use x="4" y="17" xlink:href="#pattern"/><use x="5" y="17" xlink:href="#pattern"/><use x="10" y="17" xlink:href="#pattern"/><use x="11" y="17" xlink:href="#pattern"/><use x="13" y="17" xlink:href="#pattern"/><use x="14" y="17" xlink:href="#pattern"/><use x="18" y="17" xlink:href="#pattern"/><use x="19" y="17" xlink:href="#pattern"/><use x="20" y="17" xlink:href="#pattern"/><use x="21" y="17" xlink:href="#pattern"/><use x="23" y="17" xlink:href="#pattern"/><use x="25" y="17" xlink:href="#pattern"/><use x="27" y="17" xlink:href="#pattern"/><use x="29" y="17" xlink:href="#pattern"/><use x="31" y="17" xlink:href="#pattern"/><use x="33" y="17" xlink:href="#pattern"/><use x="35" y="17" xlink:href="#pattern"/><use x="1" y="18" xlink:href="#pattern"/><use x="5" y="18" xlink:href="#pattern"/><use x="6" y="18" xlink:href="#pattern"/><use x="7" y="18" xlink:href="#pattern"/><use x="8" y="18" xlink:href="#pattern"/><use x="11" y="18" xlink:href="#pattern"/><use x="12" y="18" xlink:href="#pattern"/><use x="13" y="18" xlink:href="#pattern"/><use x="15" y="18" xlink:href="#pattern"/><use x="17" y="18" xlink:href="#pattern"/><use x="18" y="18" xlink:href="#pattern"/><use x="19" y="18" xlink:href="#pattern"/><use x="20" y="18" xlink:href="#pattern"/><use x="27" y="18" xlink:href="#pattern"/><use x="29" y="18" xlink:href="#pattern"/><use x="32" y="18" xlink:href="#pattern"/><use x="33" y="18" xlink:href="#pattern"/><use x="36" y="18" xlink:href="#pattern"/><use x="1" y="19" xlink:href="#pattern"/><use x="7" y="19" xlink:href="#pattern"/><use x="9" y="19" xlink:href="#pattern"/><use x="15" y="19" xlink:href="#pattern"/><use x="16" y="19" xlink:href="#pattern"/><use x="18" y="19" xlink:href="#pattern"/><use x="20" y="19" xlink:href="#pattern"/><use x="22" y="19" xlink:href="#pattern"/><use x="25" y="19" xlink:href="#pattern"/><use x="28" y="19" xlink:href="#pattern"/><use x="29" y="19" xlink:href="#pattern"/><use x="30" y="19" xlink:href="#pattern"/><use x="31" y="19" xlink:href="#pattern"/><use x="33" y="19" xlink:href="#pattern"/><use x="35" y="19" xlink:href="#pattern"/><use x="36" y="19" xlink:href="#pattern"/><use x="1" y="20" xlink:href="#pattern"/><use x="2" y="20" xlink:href="#pattern"/><use x="5" y="20" xlink:href="#pattern"/><use x="6" y="20" xlink:href="#pattern"/><use x="7" y="20" xlink:href="#pattern"/><use x="10" y="20" xlink:href="#pattern"/><use x="14" y="20" xlink:href="#pattern"/><use x="16" y="20" xlink:href="#pattern"/><use x="17" y="20" xlink:href="#pattern"/><use x="18" y="20" xlink:href="#pattern"/><use x="23" y="20" xlink:href="#pattern"/><use x="24" y="20" xlink:href="#pattern"/><use x="26" y="20" xlink:href="#pattern"/><use x="27" y="20" xlink:href="#pattern"/><use x="28" y="20" xlink:href="#pattern"/><use x="29" y="20" xlink:href="#pattern"/><use x="30" y="20" xlink:href="#pattern"/><use x="32" y="20" xlink:href="#pattern"/><use x="33" y="20" xlink:href="#pattern"/><use x="3" y="21" xlink:href="#pattern"/><use x="4" y="21" xlink:href="#pattern"/><use x="7" y="21" xlink:href="#pattern"/><use x="8" y="21" xlink:href="#pattern"/><use x="11" y="21" xlink:href="#pattern"/><use x="13" y="21" xlink:href="#pattern"/><use x="14" y="21" xlink:href="#pattern"/><use x="15" y="21" xlink:href="#pattern"/><use x="17" y="21" xlink:href="#pattern"/><use x="18" y="21" xlink:href="#pattern"/><use x="25" y="21" xlink:href="#pattern"/><use x="26" y="21" xlink:href="#pattern"/><use x="27" y="21" xlink:href="#pattern"/><use x="28" y="21" xlink:href="#pattern"/><use x="31" y="21" xlink:href="#pattern"/><use x="32" y="21" xlink:href="#pattern"/><use x="33" y="21" xlink:href="#pattern"/><use x="35" y="21" xlink:href="#pattern"/><use x="0" y="22" xlink:href="#pattern"/><use x="1" y="22" xlink:href="#pattern"/><use x="5" y="22" xlink:href="#pattern"/><use x="6" y="22" xlink:href="#pattern"/><use x="9" y="22" xlink:href="#pattern"/><use x="11" y="22" xlink:href="#pattern"/><use x="12" y="22" xlink:href="#pattern"/><use x="16" y="22" xlink:href="#pattern"/><use x="17" y="22" xlink:href="#pattern"/><use x="18" y="22" xlink:href="#pattern"/><use x="21" y="22" xlink:href="#pattern"/><use x="25" y="22" xlink:href="#pattern"/><use x="27" y="22" xlink:href="#pattern"/><use x="29" y="22" xlink:href="#pattern"/><use x="32" y="22" xlink:href="#pattern"/><use x="34" y="22" xlink:href="#pattern"/><use x="36" y="22" xlink:href="#pattern"/><use x="1" y="23" xlink:href="#pattern"/><use x="2" y="23" xlink:href="#pattern"/><use x="3" y="23" xlink:href="#pattern"/><use x="7" y="23" xlink:href="#pattern"/><use x="8" y="23" xlink:href="#pattern"/><use x="10" y="23" xlink:href="#pattern"/><use x="11" y="23" xlink:href="#pattern"/><use x="12" y="23" xlink:href="#pattern"/><use x="13" y="23" xlink:href="#pattern"/><use x="15" y="23" xlink:href="#pattern"/><use x="16" y="23" xlink:href="#pattern"/><use x="17" y="23" xlink:href="#pattern"/><use x="20" y="23" xlink:href="#pattern"/><use x="22" y="23" xlink:href="#pattern"/><use x="24" y="23" xlink:href="#pattern"/><use x="25" y="23" xlink:href="#pattern"/><use x="27" y="23" xlink:href="#pattern"/><use x="28" y="23" xlink:href="#pattern"/><use x="30" y="23" xlink:href="#pattern"/><use x="31" y="23" xlink:href="#pattern"/><use x="33" y="23" xlink:href="#pattern"/><use x="34" y="23" xlink:href="#pattern"/><use x="35" y="23" xlink:href="#pattern"/><use x="3" y="24" xlink:href="#pattern"/><use x="4" y="24" xlink:href="#pattern"/><use x="6" y="24" xlink:href="#pattern"/><use x="7" y="24" xlink:href="#pattern"/><use x="8" y="24" xlink:href="#pattern"/><use x="11" y="24" xlink:href="#pattern"/><use x="13" y="24" xlink:href="#pattern"/><use x="14" y="24" xlink:href="#pattern"/><use x="15" y="24" xlink:href="#pattern"/><use x="19" y="24" xlink:href="#pattern"/><use x="21" y="24" xlink:href="#pattern"/><use x="22" y="24" xlink:href="#pattern"/><use x="24" y="24" xlink:href="#pattern"/><use x="25" y="24" xlink:href="#pattern"/><use x="30" y="24" xlink:href="#pattern"/><use x="33" y="24" xlink:href="#pattern"/><use x="0" y="25" xlink:href="#pattern"/><use x="5" y="25" xlink:href="#pattern"/><use x="8" y="25" xlink:href="#pattern"/><use x="9" y="25" xlink:href="#pattern"/><use x="10" y="25" xlink:href="#pattern"/><use x="11" y="25" xlink:href="#pattern"/><use x="12" y="25" xlink:href="#pattern"/><use x="13" y="25" xlink:href="#pattern"/><use x="15" y="25" xlink:href="#pattern"/><use x="16" y="25" xlink:href="#pattern"/><use x="17" y="25" xlink:href="#pattern"/><use x="19" y="25" xlink:href="#pattern"/><use x="21" y="25" xlink:href="#pattern"/><use x="25" y="25" xlink:href="#pattern"/><use x="26" y="25" xlink:href="#pattern"/><use x="27" y="25" xlink:href="#pattern"/><use x="28" y="25" xlink:href="#pattern"/><use x="32" y="25" xlink:href="#pattern"/><use x="0" y="26" xlink:href="#pattern"/><use x="1" y="26" xlink:href="#pattern"/><use x="5" y="26" xlink:href="#pattern"/><use x="6" y="26" xlink:href="#pattern"/><use x="7" y="26" xlink:href="#pattern"/><use x="10" y="26" xlink:href="#pattern"/><use x="11" y="26" xlink:href="#pattern"/><use x="13" y="26" xlink:href="#pattern"/><use x="14" y="26" xlink:href="#pattern"/><use x="15" y="26" xlink:href="#pattern"/><use x="17" y="26" xlink:href="#pattern"/><use x="20" y="26" xlink:href="#pattern"/><use x="21" y="26" xlink:href="#pattern"/><use x="22" y="26" xlink:href="#pattern"/><use x="23" y="26" xlink:href="#pattern"/><use x="24" y="26" xlink:href="#pattern"/><use x="26" y="26" xlink:href="#pattern"/><use x="27" y="26" xlink:href="#pattern"/><use x="28" y="26" xlink:href="#pattern"/><use x="30" y="26" xlink:href="#pattern"/><use x="31" y="26" xlink:href="#pattern"/><use x="35" y="26" xlink:href="#pattern"/><use x="36" y="26" xlink:href="#pattern"/><use x="0" y="27" xlink:href="#pattern"/><use x="3" y="27" xlink:href="#pattern"/><use x="4" y="27" xlink:href="#pattern"/><use x="5" y="27" xlink:href="#pattern"/><use x="7" y="27" xlink:href="#pattern"/><use x="9" y="27" xlink:href="#pattern"/><use x="10" y="27" xlink:href="#pattern"/><use x="11" y="27" xlink:href="#pattern"/><use x="12" y="27" xlink:href="#pattern"/><use x="13" y="27" xlink:href="#pattern"/><use x="15" y="27" xlink:href="#pattern"/><use x="18" y="27" xlink:href="#pattern"/><use x="22" y="27" xlink:href="#pattern"/><use x="23" y="27" xlink:href="#pattern"/><use x="27" y="27" xlink:href="#pattern"/><use x="28" y="27" xlink:href="#pattern"/><use x="29" y="27" xlink:href="#pattern"/><use x="33" y="27" xlink:href="#pattern"/><use x="34" y="27" xlink:href="#pattern"/><use x="0" y="28" xlink:href="#pattern"/><use x="2" y="28" xlink:href="#pattern"/><use x="3" y="28" xlink:href="#pattern"/><use x="4" y="28" xlink:href="#pattern"/><use x="6" y="28" xlink:href="#pattern"/><use x="8" y="28" xlink:href="#pattern"/><use x="10" y="28" xlink:href="#pattern"/><use x="12" y="28" xlink:href="#pattern"/><use x="13" y="28" xlink:href="#pattern"/><use x="14" y="28" xlink:href="#pattern"/><use x="16" y="28" xlink:href="#pattern"/><use x="18" y="28" xlink:href="#pattern"/><use x="22" y="28" xlink:href="#pattern"/><use x="24" y="28" xlink:href="#pattern"/><use x="25" y="28" xlink:href="#pattern"/><use x="28" y="28" xlink:href="#pattern"/><use x="29" y="28" xlink:href="#pattern"/><use x="30" y="28" xlink:href="#pattern"/><use x="31" y="28" xlink:href="#pattern"/><use x="32" y="28" xlink:href="#pattern"/><use x="33" y="28" xlink:href="#pattern"/><use x="34" y="28" xlink:href="#pattern"/><use x="8" y="29" xlink:href="#pattern"/><use x="9" y="29" xlink:href="#pattern"/><use x="10" y="29" xlink:href="#pattern"/><use x="20" y="29" xlink:href="#pattern"/><use x="25" y="29" xlink:href="#pattern"/><use x="26" y="29" xlink:href="#pattern"/><use x="28" y="29" xlink:href="#pattern"/><use x="32" y="29" xlink:href="#pattern"/><use x="33" y="29" xlink:href="#pattern"/><use x="34" y="29" xlink:href="#pattern"/><use x="0" y="30" xlink:href="#pattern-eye-external"/><use x="1" y="30" xlink:href="#pattern-eye-external"/><use x="2" y="30" xlink:href="#pattern-eye-external"/><use x="3" y="30" xlink:href="#pattern-eye-external"/><use x="4" y="30" xlink:href="#pattern-eye-external"/><use x="5" y="30" xlink:href="#pattern-eye-external"/><use x="6" y="30" xlink:href="#pattern-eye-external"/><use x="8" y="30" xlink:href="#pattern"/><use x="12" y="30" xlink:href="#pattern"/><use x="13" y="30" xlink:href="#pattern"/><use x="18" y="30" xlink:href="#pattern"/><use x="22" y="30" xlink:href="#pattern"/><use x="23" y="30" xlink:href="#pattern"/><use x="28" y="30" xlink:href="#pattern"/><use x="30" y="30" xlink:href="#pattern"/><use x="32" y="30" xlink:href="#pattern"/><use x="33" y="30" xlink:href="#pattern"/><use x="34" y="30" xlink:href="#pattern"/><use x="36" y="30" xlink:href="#pattern"/><use x="0" y="31" xlink:href="#pattern-eye-external"/><use x="6" y="31" xlink:href="#pattern-eye-external"/><use x="9" y="31" xlink:href="#pattern"/><use x="10" y="31" xlink:href="#pattern"/><use x="11" y="31" xlink:href="#pattern"/><use x="14" y="31" xlink:href="#pattern"/><use x="15" y="31" xlink:href="#pattern"/><use x="16" y="31" xlink:href="#pattern"/><use x="17" y="31" xlink:href="#pattern"/><use x="18" y="31" xlink:href="#pattern"/><use x="22" y="31" xlink:href="#pattern"/><use x="24" y="31" xlink:href="#pattern"/><use x="25" y="31" xlink:href="#pattern"/><use x="26" y="31" xlink:href="#pattern"/><use x="28" y="31" xlink:href="#pattern"/><use x="32" y="31" xlink:href="#pattern"/><use x="33" y="31" xlink:href="#pattern"/><use x="35" y="31" xlink:href="#pattern"/><use x="0" y="32" xlink:href="#pattern-eye-external"/><use x="2" y="32" xlink:href="#pattern-eye-internal"/><use x="3" y="32" xlink:href="#pattern-eye-internal"/><use x="4" y="32" xlink:href="#pattern-eye-internal"/><use x="6" y="32" xlink:href="#pattern-eye-external"/><use x="8" y="32" xlink:href="#pattern"/><use x="10" y="32" xlink:href="#pattern"/><use x="11" y="32" xlink:href="#pattern"/><use x="13" y="32" xlink:href="#pattern"/><use x="14" y="32" xlink:href="#pattern"/><use x="17" y="32" xlink:href="#pattern"/><use x="19" y="32" xlink:href="#pattern"/><use x="20" y="32" xlink:href="#pattern"/><use x="21" y="32" xlink:href="#pattern"/><use x="22" y="32" xlink:href="#pattern"/><use x="27" y="32" xlink:href="#pattern"/><use x="28" y="32" xlink:href="#pattern"/><use x="29" y="32" xlink:href="#pattern"/><use x="30" y="32" xlink:href="#pattern"/><use x="31" y="32" xlink:href="#pattern"/><use x="32" y="32" xlink:href="#pattern"/><use x="35" y="32" xlink:href="#pattern"/><use x="36" y="32" xlink:href="#pattern"/><use x="0" y="33" xlink:href="#pattern-eye-external"/><use x="2" y="33" xlink:href="#pattern-eye-internal"/><use x="3" y="33" xlink:href="#pattern-eye-internal"/><use x="4" y="33" xlink:href="#pattern-eye-internal"/><use x="6" y="33" xlink:href="#pattern-eye-external"/><use x="8" y="33" xlink:href="#pattern"/><use x="10" y="33" xlink:href="#pattern"/><use x="14" y="33" xlink:href="#pattern"/><use x="16" y="33" xlink:href="#pattern"/><use x="17" y="33" xlink:href="#pattern"/><use x="18" y="33" xlink:href="#pattern"/><use x="22" y="33" xlink:href="#pattern"/><use x="24" y="33" xlink:href="#pattern"/><use x="25" y="33" xlink:href="#pattern"/><use x="26" y="33" xlink:href="#pattern"/><use x="30" y="33" xlink:href="#pattern"/><use x="33" y="33" xlink:href="#pattern"/><use x="0" y="34" xlink:href="#pattern-eye-external"/><use x="2" y="34" xlink:href="#pattern-eye-internal"/><use x="3" y="34" xlink:href="#pattern-eye-internal"/><use x="4" y="34" xlink:href="#pattern-eye-internal"/><use x="6" y="34" xlink:href="#pattern-eye-external"/><use x="10" y="34" xlink:href="#pattern"/><use x="12" y="34" xlink:href="#pattern"/><use x="15" y="34" xlink:href="#pattern"/><use x="16" y="34" xlink:href="#pattern"/><use x="18" y="34" xlink:href="#pattern"/><use x="19" y="34" xlink:href="#pattern"/><use x="20" y="34" xlink:href="#pattern"/><use x="23" y="34" xlink:href="#pattern"/><use x="26" y="34" xlink:href="#pattern"/><use x="28" y="34" xlink:href="#pattern"/><use x="32" y="34" xlink:href="#pattern"/><use x="33" y="34" xlink:href="#pattern"/><use x="35" y="34" xlink:href="#pattern"/><use x="36" y="34" xlink:href="#pattern"/><use x="0" y="35" xlink:href="#pattern-eye-external"/><use x="6" y="35" xlink:href="#pattern-eye-external"/><use x="9" y="35" xlink:href="#pattern"/><use x="10" y="35" xlink:href="#pattern"/><use x="12" y="35" xlink:href="#pattern"/><use x="13" y="35" xlink:href="#pattern"/><use x="14" y="35" xlink:href="#pattern"/><use x="17" y="35" xlink:href="#pattern"/><use x="20" y="35" xlink:href="#pattern"/><use x="21" y="35" xlink:href="#pattern"/><use x="23" y="35" xlink:href="#pattern"/><use x="24" y="35" xlink:href="#pattern"/><use x="29" y="35" xlink:href="#pattern"/><use x="31" y="35" xlink:href="#pattern"/><use x="33" y="35" xlink:href="#pattern"/><use x="34" y="35" xlink:href="#pattern"/><use x="35" y="35" xlink:href="#pattern"/><use x="36" y="35" xlink:href="#pattern"/><use x="0" y="36" xlink:href="#pattern-eye-external"/><use x="1" y="36" xlink:href="#pattern-eye-external"/><use x="2" y="36" xlink:href="#pattern-eye-external"/><use x="3" y="36" xlink:href="#pattern-eye-external"/><use x="4" y="36" xlink:href="#pattern-eye-external"/><use x="5" y="36" xlink:href="#pattern-eye-external"/><use x="6" y="36" xlink:href="#pattern-eye-external"/><use x="10" y="36" xlink:href="#pattern"/><use x="11" y="36" xlink:href="#pattern"/><use x="14" y="36" xlink:href="#pattern"/><use x="17" y="36" xlink:href="#pattern"/><use x="18" y="36" xlink:href="#pattern"/><use x="20" y="36" xlink:href="#pattern"/><use x="21" y="36" xlink:href="#pattern"/><use x="22" y="36" xlink:href="#pattern"/><use x="23" y="36" xlink:href="#pattern"/><use x="24" y="36" xlink:href="#pattern"/><use x="28" y="36" xlink:href="#pattern"/><use x="33" y="36" xlink:href="#pattern"/><use x="36" y="36" xlink:href="#pattern"/></svg></g>
                                </svg>