<svg width="100%" height="100%" xmlns="http://www.w3.org/2000/svg" xmlns:xlink="http://www.w3.org/1999/xlink">
                                    <g><rect id="qr-code-bg" width="100%" height="100%" fill="#ffffff"/></g>
                                    <g id="qr-code"><svg viewBox="0 0 33 33" width="100%" height="100%" xmlns:xlink="http://www.w3.org/1999/xlink" fill="#ffffff"><defs><rect fill="#000000" stroke="none" width="1" height="1" id="pattern"/><rect fill="#000000" stroke="none" width="1" height="1" id="pattern-eye-internal"/><rect fill="#000000" stroke="none" width="1" height="1" id="pattern-eye-external"/></defs><rect fill="#ffffff" stroke="none" width="100%" height="100%"/><use x="0" y="0" xlink:href="#pattern-eye-external"/><use x="1" y="0" xlink:href="#pattern-eye-external"/><use x="2" y="0" xlink:href="#pattern-eye-external"/><use x="3" y="0" xlink:href="#pattern-eye-external"/><use x="4" y="0" xlink:href="#pattern-eye-external"/><use x="5" y="0" xlink:href="#pattern-eye-external"/><use x="6" y="0" xlink:href="#pattern-eye-external"/><use x="10" y="0" xlink:href="#pattern"/><use x="11" y="0" xlink:href="#pattern"/><use x="12" y="0" xlink:href="#pattern"/><use x="13" y="0" xlink:href="#pattern"/><use x="14" y="0" xlink:href="#pattern"/><use x="15" y="0" xlink:href="#pattern"/><use x="19" y="0" xlink:href="#pattern"/><use x="20" y="0" xlink:href="#pattern"/><use x="21" y="0" xlink:href="#pattern"/><use x="22" y="0" xlink:href="#pattern"/><use x="24" y="0" xlink:href="#pattern"/><use x="26" y="0" xlink:href="#pattern-eye-external"/><use x="27" y="0" xlink:href="#pattern-eye-external"/><use x="28" y="0" xlink:href="#pattern-eye-external"/><use x="29" y="0" xlink:href="#pattern-eye-external"/><use x="30" y="0" xlink:href="#pattern-eye-external"/><use x="31" y="0" xlink:href="#pattern-eye-external"/><use x="32" y="0" xlink:href="#pattern-eye-external"/><use x="0" y="1" xlink:href="#pattern-eye-external"/><use x="6" y="1" xlink:href="#pattern-eye-external"/><use x="8" y="1" xlink:href="#pattern"/><use x="15" y="1" xlink:href="#pattern"/><use x="17" y="1" xlink:href="#pattern"/><use x="19" y="1" xlink:href="#pattern"/><use x="20" y="1" xlink:href="#pattern"/><use x="21" y="1" xlink:href="#pattern"/><use x="24" y="1" xlink:href="#pattern"/><use x="26" y="1" xlink:href="#pattern-eye-external"/><use x="32" y="1" xlink:href="#pattern-eye-external"/><use x="0" y="2" xlink:href="#pattern-eye-external"/><use x="2" y="2" xlink:href="#pattern-eye-internal"/><use x="3" y="2" xlink:href="#pattern-eye-internal"/><use x="4" y="2" xlink:href="#pattern-eye-internal"/><use x="6" y="2" xlink:href="#pattern-eye-external"/><use x="8" y="2" xlink:href="#pattern"/><use x="9" y="2" xlink:href="#pattern"/><use x="10" y="2" xlink:href="#pattern"/><use x="13" y="2" xlink:href="#pattern"/><use x="14" y="2" xlink:href="#pattern"/><use x="15" y="2" xlink:href="#pattern"/><use x="16" y="2" xlink:href="#pattern"/><use x="19" y="2" xlink:href="#pattern"/><use x="21" y="2" xlink:href="#pattern"/><use x="26" y="2" xlink:href="#pattern-eye-external"/><use x="28" y="2" xlink:href="#pattern-eye-internal"/><use x="29" y="2" xlink:href="#pattern-eye-internal"/><use x="30" y="2" xlink:href="#pattern-eye-internal"/><use x="32" y="2" xlink:href="#pattern-eye-external"/><use x="0" y="3" xlink:href="#pattern-eye-external"/><use x="2" y="3" xlink:href="#pattern-eye-internal"/><use x="3" y="3" xlink:href="#pattern-eye-internal"/><use x="4" y="3" xlink:href="#pattern-eye-internal"/><use x="6" y="3" xlink:href="#pattern-eye-external"/><use x="8" y="3" xlink:href="#pattern"/><use x="9" y="3" xlink:href="#pattern"/><use x="10" y="3" xlink:href="#pattern"/><use x="13" y="3" xlink:href="#pattern"/><use x="18" y="3" xlink:href="#pattern"/><use x="19" y="3" xlink:href="#pattern"/><use x="21" y="3" xlink:href="#pattern"/><use x="22" y="3" xlink:href="#pattern"/><use x="23" y="3" xlink:href="#pattern"/><use x="26" y="3" xlink:href="#pattern-eye-external"/><use x="28" y="3" xlink:href="#pattern-eye-internal"/><use x="29" y="3" xlink:href="#pattern-eye-internal"/><use x="30" y="3" xlink:href="#pattern-eye-internal"/><use x="32" y="3" xlink:href="#pattern-eye-external"/><use x="0" y="4" xlink:href="#pattern-eye-external"/><use x="2" y="4" xlink:href="#pattern-eye-internal"/><use x="3" y="4" xlink:href="#pattern-eye-internal"/><use x="4" y="4" xlink:href="#pattern-eye-internal"/><use x="6" y="4" xlink:href="#pattern-eye-external"/><use x="8" y="4" xlink:href="#pattern"/><use x="11" y="4" xlink:href="#pattern"/><use x="18" y="4" xlink:href="#pattern"/><use x="19" y="4" xlink:href="#pattern"/><use x="20" y="4" xlink:href="#pattern"/><use x="22" y="4" xlink:href="#pattern"/><use x="23" y="4" xlink:href="#pattern"/><use x="26" y="4" xlink:href="#pattern-eye-external"/><use x="28" y="4" xlink:href="#pattern-eye-internal"/><use x="29" y="4" xlink:href="#pattern-eye-internal"/><use x="30" y="4" xlink:href="#pattern-eye-internal"/><use x="32" y="4" xlink:href="#pattern-eye-external"/><use x="0" y="5" xlink:href="#pattern-eye-external"/><use x="6" y="5" xlink:href="#pattern-eye-external"/><use x="8" y="5" xlink:href="#pattern"/><use x="9" y="5" xlink:href="#pattern"/><use x="11" y="5" xlink:href="#pattern"/><use x="12" y="5" xlink:href="#pattern"/><use x="13" y="5" xlink:href="#pattern"/><use x="14" y="5" xlink:href="#pattern"/><use x="18" y="5" xlink:href="#pattern"/><use x="21" y="5" xlink:href="#pattern"/><use x="23" y="5" xlink:href="#pattern"/><use x="26" y="5" xlink:href="#pattern-eye-external"/><use x="32" y="5" xlink:href="#pattern-eye-external"/><use x="0" y="6" xlink:href="#pattern-eye-external"/><use x="1" y="6" xlink:href="#pattern-eye-external"/><use x="2" y="6" xlink:href="#pattern-eye-external"/><use x="3" y="6" xlink:href="#pattern-eye-external"/><use x="4" y="6" xlink:href="#pattern-eye-external"/><use x="5" y="6" xlink:href="#pattern-eye-external"/><use x="6" y="6" xlink:href="#pattern-eye-external"/><use x="8" y="6" xlink:href="#pattern"/><use x="10" y="6" xlink:href="#pattern"/><use x="12" y="6" xlink:href="#pattern"/><use x="14" y="6" xlink:href="#pattern"/><use x="16" y="6" xlink:href="#pattern"/><use x="18" y="6" xlink:href="#pattern"/><use x="20" y="6" xlink:href="#pattern"/><use x="22" y="6" xlink:href="#pattern"/><use x="24" y="6" xlink:href="#pattern"/><use x="26" y="6" xlink:href="#pattern-eye-external"/><use x="27" y="6" xlink:href="#pattern-eye-external"/><use x="28" y="6" xlink:href="#pattern-eye-external"/><use x="29" y="6" xlink:href="#pattern-eye-external"/><use x="30" y="6" xlink:href="#pattern-eye-external"/><use x="31" y="6" xlink:href="#pattern-eye-external"/><use x="32" y="6" xlink:href="#pattern-eye-external"/><use x="12" y="7" xlink:href="#pattern"/><use x="13" y="7" xlink:href="#pattern"/><use x="14" y="7" xlink:href="#pattern"/><use x="18" y="7" xlink:href="#pattern"/><use x="19" y="7" xlink:href="#pattern"/><use x="20" y="7" xlink:href="#pattern"/><use x="22" y="7" xlink:href="#pattern"/><use x="23" y="7" xlink:href="#pattern"/><use x="24" y="7" xlink:href="#pattern"/><use x="2" y="8" xlink:href="#pattern"/><use x="5" y="8" xlink:href="#pattern"/><use x="6" y="8" xlink:href="#pattern"/><use x="7" y="8" xlink:href="#pattern"/><use x="8" y="8" xlink:href="#pattern"/><use x="10" y="8" xlink:href="#pattern"/><use x="14" y="8" xlink:href="#pattern"/><use x="16" y="8" xlink:href="#pattern"/><use x="17" y="8" xlink:href="#pattern"/><use x="19" y="8" xlink:href="#pattern"/><use x="20" y="8" xlink:href="#pattern"/><use x="24" y="8" xlink:href="#pattern"/><use x="25" y="8" xlink:href="#pattern"/><use x="27" y="8" xlink:href="#pattern"/><use x="28" y="8" xlink:href="#pattern"/><use x="29" y="8" xlink:href="#pattern"/><use x="30" y="8" xlink:href="#pattern"/><use x="31" y="8" xlink:href="#pattern"/><use x="1" y="9" xlink:href="#pattern"/><use x="2" y="9" xlink:href="#pattern"/><use x="3" y="9" xlink:href="#pattern"/><use x="7" y="9" xlink:href="#pattern"/><use x="8" y="9" xlink:href="#pattern"/><use x="9" y="9" xlink:href="#pattern"/><use x="11" y="9" xlink:href="#pattern"/><use x="14" y="9" xlink:href="#pattern"/><use x="17" y="9" xlink:href="#pattern"/><use x="18" y="9" xlink:href="#pattern"/><use x="19" y="9" xlink:href="#pattern"/><use x="20" y="9" xlink:href="#pattern"/><use x="22" y="9" xlink:href="#pattern"/><use x="23" y="9" xlink:href="#pattern"/><use x="24" y="9" xlink:href="#pattern"/><use x="25" y="9" xlink:href="#pattern"/><use x="26" y="9" xlink:href="#pattern"/><use x="27" y="9" xlink:href="#pattern"/><use x="29" y="9" xlink:href="#pattern"/><use x="31" y="9" xlink:href="#pattern"/><use x="32" y="9" xlink:href="#pattern"/><use x="0" y="10" xlink:href="#pattern"/><use x="1" y="10" xlink:href="#pattern"/><use x="2" y="10" xlink:href="#pattern"/><use x="3" y="10" xlink:href="#pattern"/><use x="4" y="10" xlink:href="#pattern"/><use x="5" y="10" xlink:href="#pattern"/><use x="6" y="10" xlink:href="#pattern"/><use x="7" y="10" xlink:href="#pattern"/><use x="11" y="10" xlink:href="#pattern"/><use x="13" y="10" xlink:href="#pattern"/><use x="15" y="10" xlink:href="#pattern"/><use x="16" y="10" xlink:href="#pattern"/><use x="17" y="10" xlink:href="#pattern"/><use x="18" y="10" xlink:href="#pattern"/><use x="19" y="10" xlink:href="#pattern"/><use x="21" y="10" xlink:href="#pattern"/><use x="22" y="10" xlink:href="#pattern"/><use x="23" y="10" xlink:href="#pattern"/><use x="24" y="10" xlink:href="#pattern"/><use x="27" y="10" xlink:href="#pattern"/><use x="28" y="10" xlink:href="#pattern"/><use x="29" y="10" xlink:href="#pattern"/><use x="31" y="10" xlink:href="#pattern"/><use x="32" y="10" xlink:href="#pattern"/><use x="0" y="11" xlink:href="#pattern"/><use x="1" y="11" xlink:href="#pattern"/><use x="2" y="11" xlink:href="#pattern"/><use x="3" y="11" xlink:href="#pattern"/><use x="7" y="11" xlink:href="#pattern"/><use x="8" y="11" xlink:href="#pattern"/><use x="9" y="11" xlink:href="#pattern"/><use x="12" y="11" xlink:href="#pattern"/><use x="15" y="11" xlink:href="#pattern"/><use x="16" y="11" xlink:href="#pattern"/><use x="20" y="11" xlink:href="#pattern"/><use x="22" y="11" xlink:href="#pattern"/><use x="23" y="11" xlink:href="#pattern"/><use x="26" y="11" xlink:href="#pattern"/><use x="27" y="11" xlink:href="#pattern"/><use x="29" y="11" xlink:href="#pattern"/><use x="0" y="12" xlink:href="#pattern"/><use x="4" y="12" xlink:href="#pattern"/><use x="6" y="12" xlink:href="#pattern"/><use x="7" y="12" xlink:href="#pattern"/><use x="8" y="12" xlink:href="#pattern"/><use x="9" y="12" xlink:href="#pattern"/><use x="11" y="12" xlink:href="#pattern"/><use x="12" y="12" xlink:href="#pattern"/><use x="13" y="12" xlink:href="#pattern"/><use x="14" y="12" xlink:href="#pattern"/><use x="16" y="12" xlink:href="#pattern"/><use x="18" y="12" xlink:href="#pattern"/><use x="21" y="12" xlink:href="#pattern"/><use x="22" y="12" xlink:href="#pattern"/><use x="23" y="12" xlink:href="#pattern"/><use x="26" y="12" xlink:href="#pattern"/><use x="28" y="12" xlink:href="#pattern"/><use x="29" y="12" xlink:href="#pattern"/><use x="31" y="12" xlink:href="#pattern"/><use x="1" y="13" xlink:href="#pattern"/><use x="2" y="13" xlink:href="#pattern"/><use x="3" y="13" xlink:href="#pattern"/><use x="5" y="13" xlink:href="#pattern"/><use x="7" y="13" xlink:href="#pattern"/><use x="10" y="13" xlink:href="#pattern"/><use x="11" y="13" xlink:href="#pattern"/><use x="12" y="13" xlink:href="#pattern"/><use x="16" y="13" xlink:href="#pattern"/><use x="18" y="13" xlink:href="#pattern"/><use x="19" y="13" xlink:href="#pattern"/><use x="21" y="13" xlink:href="#pattern"/><use x="22" y="13" xlink:href="#pattern"/><use x="23" y="13" xlink:href="#pattern"/><use x="24" y="13" xlink:href="#pattern"/><use x="25" y="13" xlink:href="#pattern"/><use x="26" y="13" xlink:href="#pattern"/><use x="32" y="13" xlink:href="#pattern"/><use x="0" y="14" xlink:href="#pattern"/><use x="1" y="14" xlink:href="#pattern"/><use x="5" y="14" xlink:href="#pattern"/><use x="6" y="14" xlink:href="#pattern"/><use x="7" y="14" xlink:href="#pattern"/><use x="9" y="14" xlink:href="#pattern"/><use x="10" y="14" xlink:href="#pattern"/><use x="12" y="14" xlink:href="#pattern"/><use x="14" y="14" xlink:href="#pattern"/><use x="17" y="14" xlink:href="#pattern"/><use x="19" y="14" xlink:href="#pattern"/><use x="23" y="14" xlink:href="#pattern"/><use x="26" y="14" xlink:href="#pattern"/><use x="28" y="14" xlink:href="#pattern"/><use x="30" y="14" xlink:href="#pattern"/><use x="32" y="14" xlink:href="#pattern"/><use x="1" y="15" xlink:href="#pattern"/><use x="3" y="15" xlink:href="#pattern"/><use x="7" y="15" xlink:href="#pattern"/><use x="10" y="15" xlink:href="#pattern"/><use x="12" y="15" xlink:href="#pattern"/><use x="14" y="15" xlink:href="#pattern"/><use x="16" y="15" xlink:href="#pattern"/><use x="18" y="15" xlink:href="#pattern"/><use x="22" y="15" xlink:href="#pattern"/><use x="24" y="15" xlink:href="#pattern"/><use x="25" y="15" xlink:href="#pattern"/><use x="26" y="15" xlink:href="#pattern"/><use x="31" y="15" xlink:href="#pattern"/><use x="5" y="16" xlink:href="#pattern"/><use x="6" y="16" xlink:href="#pattern"/><use x="10" y="16" xlink:href="#pattern"/><use x="11" y="16" xlink:href="#pattern"/><use x="13" y="16" xlink:href="#pattern"/><use x="15" y="16" xlink:href="#pattern"/><use x="16" y="16" xlink:href="#pattern"/><use x="18" y="16" xlink:href="#pattern"/><use x="19" y="16" xlink:href="#pattern"/><use x="20" y="16" xlink:href="#pattern"/><use x="23" y="16" xlink:href="#pattern"/><use x="24" y="16" xlink:href="#pattern"/><use x="26" y="16" xlink:href="#pattern"/><use x="30" y="16" xlink:href="#pattern"/><use x="31" y="16" xlink:href="#pattern"/><use x="1" y="17" xlink:href="#pattern"/><use x="4" y="17" xlink:href="#pattern"/><use x="7" y="17" xlink:href="#pattern"/><use x="8" y="17" xlink:href="#pattern"/><use x="10" y="17" xlink:href="#pattern"/><use x="11" y="17" xlink:href="#pattern"/><use x="13" y="17" xlink:href="#pattern"/><use x="14" y="17" xlink:href="#pattern"/><use x="15" y="17" xlink:href="#pattern"/><use x="16" y="17" xlink:href="#pattern"/><use x="20" y="17" xlink:href="#pattern"/><use x="21" y="17" xlink:href="#pattern"/><use x="23" y="17" xlink:href="#pattern"/><use x="26" y="17" xlink:href="#pattern"/><use x="27" y="17" xlink:href="#pattern"/><use x="30" y="17" xlink:href="#pattern"/><use x="3" y="18" xlink:href="#pattern"/><use x="5" y="18" xlink:href="#pattern"/><use x="6" y="18" xlink:href="#pattern"/><use x="7" y="18" xlink:href="#pattern"/><use x="8" y="18" xlink:href="#pattern"/><use x="9" y="18" xlink:href="#pattern"/><use x="11" y="18" xlink:href="#pattern"/><use x="12" y="18" xlink:href="#pattern"/><use x="14" y="18" xlink:href="#pattern"/><use x="16" y="18" xlink:href="#pattern"/><use x="17" y="18" xlink:href="#pattern"/><use x="18" y="18" xlink:href="#pattern"/><use x="23" y="18" xlink:href="#pattern"/><use x="24" y="18" xlink:href="#pattern"/><use x="27" y="18" xlink:href="#pattern"/><use x="29" y="18" xlink:href="#pattern"/><use x="30" y="18" xlink:href="#pattern"/><use x="0" y="19" xlink:href="#pattern"/><use x="1" y="19" xlink:href="#pattern"/><use x="2" y="19" xlink:href="#pattern"/><use x="4" y="19" xlink:href="#pattern"/><use x="7" y="19" xlink:href="#pattern"/><use x="9" y="19" xlink:href="#pattern"/><use x="10" y="19" xlink:href="#pattern"/><use x="11" y="19" xlink:href="#pattern"/><use x="12" y="19" xlink:href="#pattern"/><use x="14" y="19" xlink:href="#pattern"/><use x="16" y="19" xlink:href="#pattern"/><use x="19" y="19" xlink:href="#pattern"/><use x="22" y="19" xlink:href="#pattern"/><use x="23" y="19" xlink:href="#pattern"/><use x="26" y="19" xlink:href="#pattern"/><use x="27" y="19" xlink:href="#pattern"/><use x="28" y="19" xlink:href="#pattern"/><use x="29" y="19" xlink:href="#pattern"/><use x="32" y="19" xlink:href="#pattern"/><use x="2" y="20" xlink:href="#pattern"/><use x="3" y="20" xlink:href="#pattern"/><use x="4" y="20" xlink:href="#pattern"/><use x="5" y="20" xlink:href="#pattern"/><use x="6" y="20" xlink:href="#pattern"/><use x="7" y="20" xlink:href="#pattern"/><use x="13" y="20" xlink:href="#pattern"/><use x="15" y="20" xlink:href="#pattern"/><use x="16" y="20" xlink:href="#pattern"/><use x="18" y="20" xlink:href="#pattern"/><use x="20" y="20" xlink:href="#pattern"/><use x="27" y="20" xlink:href="#pattern"/><use x="4" y="21" xlink:href="#pattern"/><use x="5" y="21" xlink:href="#pattern"/><use x="7" y="21" xlink:href="#pattern"/><use x="11" y="21" xlink:href="#pattern"/><use x="13" y="21" xlink:href="#pattern"/><use x="15" y="21" xlink:href="#pattern"/><use x="17" y="21" xlink:href="#pattern"/><use x="20" y="21" xlink:href="#pattern"/><use x="31" y="21" xlink:href="#pattern"/><use x="32" y="21" xlink:href="#pattern"/><use x="0" y="22" xlink:href="#pattern"/><use x="1" y="22" xlink:href="#pattern"/><use x="3" y="22" xlink:href="#pattern"/><use x="5" y="22" xlink:href="#pattern"/><use x="6" y="22" xlink:href="#pattern"/><use x="7" y="22" xlink:href="#pattern"/><use x="8" y="22" xlink:href="#pattern"/><use x="11" y="22" xlink:href="#pattern"/><use x="12" y="22" xlink:href="#pattern"/><use x="13" y="22" xlink:href="#pattern"/><use x="14" y="22" xlink:href="#pattern"/><use x="17" y="22" xlink:href="#pattern"/><use x="18" y="22" xlink:href="#pattern"/><use x="19" y="22" xlink:href="#pattern"/><use x="22" y="22" xlink:href="#pattern"/><use x="23" y="22" xlink:href="#pattern"/><use x="25" y="22" xlink:href="#pattern"/><use x="26" y="22" xlink:href="#pattern"/><use x="28" y="22" xlink:href="#pattern"/><use x="29" y="22" xlink:href="#pattern"/><use x="32" y="22" xlink:href="#pattern"/><use x="3" y="23" xlink:href="#pattern"/><use x="4" y="23" xlink:href="#pattern"/><use x="7" y="23" xlink:href="#pattern"/><use x="12" y="23" xlink:href="#pattern"/><use x="14" y="23" xlink:href="#pattern"/><use x="15" y="23" xlink:href="#pattern"/><use x="17" y="23" xlink:href="#pattern"/><use x="19" y="23" xlink:href="#pattern"/><use x="20" y="23" xlink:href="#pattern"/><use x="22" y="23" xlink:href="#pattern"/><use x="27" y="23" xlink:href="#pattern"/><use x="0" y="24" xlink:href="#pattern"/><use x="1" y="24" xlink:href="#pattern"/><use x="2" y="24" xlink:href="#pattern"/><use x="5" y="24" xlink:href="#pattern"/><use x="6" y="24" xlink:href="#pattern"/><use x="8" y="24" xlink:href="#pattern"/><use x="10" y="24" xlink:href="#pattern"/><use x="11" y="24" xlink:href="#pattern"/><use x="12" y="24" xlink:href="#pattern"/><use x="13" y="24" xlink:href="#pattern"/><use x="14" y="24" xlink:href="#pattern"/><use x="15" y="24" xlink:href="#pattern"/><use x="16" y="24" xlink:href="#pattern"/><use x="18" y="24" xlink:href="#pattern"/><use x="19" y="24" xlink:href="#pattern"/><use x="21" y="24" xlink:href="#pattern"/><use x="22" y="24" xlink:href="#pattern"/><use x="23" y="24" xlink:href="#pattern"/><use x="24" y="24" xlink:href="#pattern"/><use x="25" y="24" xlink:href="#pattern"/><use x="26" y="24" xlink:href="#pattern"/><use x="27" y="24" xlink:href="#pattern"/><use x="28" y="24" xlink:href="#pattern"/><use x="8" y="25" xlink:href="#pattern"/><use x="10" y="25" xlink:href="#pattern"/><use x="12" y="25" xlink:href="#pattern"/><use x="14" y="25" xlink:href="#pattern"/><use x="15" y="25" xlink:href="#pattern"/><use x="18" y="25" xlink:href="#pattern"/><use x="21" y="25" xlink:href="#pattern"/><use x="23" y="25" xlink:href="#pattern"/><use x="24" y="25" xlink:href="#pattern"/><use x="28" y="25" xlink:href="#pattern"/><use x="29" y="25" xlink:href="#pattern"/><use x="32" y="25" xlink:href="#pattern"/><use x="0" y="26" xlink:href="#pattern-eye-external"/><use x="1" y="26" xlink:href="#pattern-eye-external"/><use x="2" y="26" xlink:href="#pattern-eye-external"/><use x="3" y="26" xlink:href="#pattern-eye-external"/><use x="4" y="26" xlink:href="#pattern-eye-external"/><use x="5" y="26" xlink:href="#pattern-eye-external"/><use x="6" y="26" xlink:href="#pattern-eye-external"/><use x="8" y="26" xlink:href="#pattern"/><use x="10" y="26" xlink:href="#pattern"/><use x="11" y="26" xlink:href="#pattern"/><use x="15" y="26" xlink:href="#pattern"/><use x="16" y="26" xlink:href="#pattern"/><use x="17" y="26" xlink:href="#pattern"/><use x="18" y="26" xlink:href="#pattern"/><use x="20" y="26" xlink:href="#pattern"/><use x="24" y="26" xlink:href="#pattern"/><use x="26" y="26" xlink:href="#pattern"/><use x="28" y="26" xlink:href="#pattern"/><use x="30" y="26" xlink:href="#pattern"/><use x="32" y="26" xlink:href="#pattern"/><use x="0" y="27" xlink:href="#pattern-eye-external"/><use x="6" y="27" xlink:href="#pattern-eye-external"/><use x="8" y="27" xlink:href="#pattern"/><use x="10" y="27" xlink:href="#pattern"/><use x="13" y="27" xlink:href="#pattern"/><use x="15" y="27" xlink:href="#pattern"/><use x="18" y="27" xlink:href="#pattern"/><use x="19" y="27" xlink:href="#pattern"/><use x="21" y="27" xlink:href="#pattern"/><use x="23" y="27" xlink:href="#pattern"/><use x="24" y="27" xlink:href="#pattern"/><use x="28" y="27" xlink:href="#pattern"/><use x="0" y="28" xlink:href="#pattern-eye-external"/><use x="2" y="28" xlink:href="#pattern-eye-internal"/><use x="3" y="28" xlink:href="#pattern-eye-internal"/><use x="4" y="28" xlink:href="#pattern-eye-internal"/><use x="6" y="28" xlink:href="#pattern-eye-external"/><use x="9" y="28" xlink:href="#pattern"/><use x="11" y="28" xlink:href="#pattern"/><use x="16" y="28" xlink:href="#pattern"/><use x="17" y="28" xlink:href="#pattern"/><use x="19" y="28" xlink:href="#pattern"/><use x="21" y="28" xlink:href="#pattern"/><use x="23" y="28" xlink:href="#pattern"/><use x="24" y="28" xlink:href="#pattern"/><use x="25" y="28" xlink:href="#pattern"/><use x="26" y="28" xlink:href="#pattern"/><use x="27" y="28" xlink:href="#pattern"/><use x="28" y="28" xlink:href="#pattern"/><use x="29" y="28" xlink:href="#pattern"/><use x="32" y="28" xlink:href="#pattern"/><use x="0" y="29" xlink:href="#pattern-eye-external"/><use x="2" y="29" xlink:href="#pattern-eye-internal"/><use x="3" y="29" xlink:href="#pattern-eye-internal"/><use x="4" y="29" xlink:href="#pattern-eye-internal"/><use x="6" y="29" xlink:href="#pattern-eye-external"/><use x="11" y="29" xlink:href="#pattern"/><use x="15" y="29" xlink:href="#pattern"/><use x="16" y="29" xlink:href="#pattern"/><use x="17" y="29" xlink:href="#pattern"/><use x="18" y="29" xlink:href="#pattern"/><use x="20" y="29" xlink:href="#pattern"/><use x="21" y="29" xlink:href="#pattern"/><use x="23" y="29" xlink:href="#pattern"/><use x="24" y="29" xlink:href="#pattern"/><use x="27" y="29" xlink:href="#pattern"/><use x="28" y="29" xlink:href="#pattern"/><use x="29" y="29" xlink:href="#pattern"/><use x="30" y="29" xlink:href="#pattern"/><use x="31" y="29" xlink:href="#pattern"/><use x="0" y="30" xlink:href="#pattern-eye-external"/><use x="2" y="30" xlink:href="#pattern-eye-internal"/><use x="3" y="30" xlink:href="#pattern-eye-internal"/><use x="4" y="30" xlink:href="#pattern-eye-internal"/><use x="6" y="30" xlink:href="#pattern-eye-external"/><use x="8" y="30" xlink:href="#pattern"/><use x="9" y="30" xlink:href="#pattern"/><use x="11" y="30" xlink:href="#pattern"/><use x="12" y="30" xlink:href="#pattern"/><use x="15" y="30" xlink:href="#pattern"/><use x="17" y="30" xlink:href="#pattern"/><use x="18" y="30" xlink:href="#pattern"/><use x="19" y="30" xlink:href="#pattern"/><use x="22" y="30" xlink:href="#pattern"/><use x="28" y="30" xlink:href="#pattern"/><use x="29" y="30" xlink:href="#pattern"/><use x="31" y="30" xlink:href="#pattern"/><use x="32" y="30" xlink:href="#pattern"/><use x="0" y="31" xlink:href="#pattern-eye-external"/><use x="6" y="31" xlink:href="#pattern-eye-external"/><use x="12" y="31" xlink:href="#pattern"/><use x="13" y="31" xlink:href="#pattern"/><use x="15" y="31" xlink:href="#pattern"/><use x="16" y="31" xlink:href="#pattern"/><use x="19" y="31" xlink:href="#pattern"/><use x="20" y="31" xlink:href="#pattern"/><use x="22" y="31" xlink:href="#pattern"/><use x="24" y="31" xlink:href="#pattern"/><use x="29" y="31" xlink:href="#pattern"/><use x="30" y="31" xlink:href="#pattern"/><use x="0" y="32" xlink:href="#pattern-eye-external"/><use x="1" y="32" xlink:href="#pattern-eye-external"/><use x="2" y="32" xlink:href="#pattern-eye-external"/><use x="3" y="32" xlink:href="#pattern-eye-external"/><use x="4" y="32" xlink:href="#pattern-eye-external"/><use x="5" y="32" xlink:href="#pattern-eye-external"/><use x="6" y="32" xlink:href="#pattern-eye-external"/><use x="9" y="32" xlink:href="#pattern"/><use x="10" y="32" xlink:href="#pattern"/><use x="11" y="32" xlink:href="#pattern"/><use x="14" y="32" xlink:href="#pattern"/><use x="15" y="32" xlink:href="#pattern"/><use x="17" y="32" xlink:href="#pattern"/><use x="18" y="32" xlink:href="#pattern"/><use x="21" y="32" xlink:href="#pattern"/><use x="24" y="32" xlink:href="#pattern"/><use x="25" y="32" xlink:href="#pattern"/><use x="28" y="32" xlink:href="#pattern"/><use x="29" y="32" xlink:href="#pattern"/><use x="30" y="32" xlink:href="#pattern"/><use x="32" y="32" xlink:href="#pattern"/></svg></g>
                                </svg>